<svg width="48" height="48" viewBox="0 0 48 48" xmlns="http://www.w3.org/2000/svg" xmlns:xlink="http://www.w3.org/1999/xlink"><path d="M13 22h22V9H13v13zm9.5-14h3V7h-3v1zm-9.585 15.5h22.17l.97 3.072a8.438 8.438 0 0 1 3.556 1.297L38 22.769V9c0-1.654-1.346-3-3-3H13c-1.654 0-3 1.346-3 3v13.769l-3 9.5V34c0 1.654 1.346 3 3 3h16.747a8.518 8.518 0 0 1-.247-2c0-.339.025-.672.064-1H10v-1.269l.073-.231h16.803a8.5 8.5 0 0 1 .628-1.5H10.547l2.368-7.5zM14 25h20l.511 1.524a8.482 8.482 0 0 0-6.045 3.048L12.5 29.5 14 25zm21.663 14c-1.891 0-3.327-1.15-3.78-2.924h-.822v-.771h.678s-.022-.155-.022-.298c0-.121.022-.319.022-.319h-.678v-.772h.822c.475-1.773 1.956-2.916 3.78-2.916a6.08 6.08 0 0 1 1.094.105l-.343 1.275s-.376-.044-.784-.044c-1.051 0-1.868.577-2.222 1.58h2.752l-.177.772h-2.774s-.022.131-.022.297c0 .121.033.32.033.32h2.631l-.166.771h-2.21c.342 1.08 1.193 1.579 2.21 1.579.575 0 1.061-.149 1.061-.149L37 38.818s-.574.182-1.337.182zM35 28a7 7 0 1 0 0 14 7 7 0 0 0 0-14z"/></svg>
