<svg width="48" height="48" viewBox="0 0 48 48" xmlns="http://www.w3.org/2000/svg"><path d="M39 9H27.5v1.5H39c.83 0 1.5.67 1.5 1.5v8.5c0 .83-.67 1.5-1.5 1.5H28.5v2l-2-2h-4.08c.52.9 1.47 1.5 2.58 1.5h1l4 4v-4h9c1.65 0 3-1.35 3-3V12c0-1.65-1.35-3-3-3zm-1 25.5h-4c-2.2 0-4 1.4-4 3.5v4h12v-4c0-2.1-1.8-3.5-4-3.5zm-24 0h-4c-2.2 0-4 1.4-4 3.5v4h12v-4c0-2.1-1.8-3.5-4-3.5zm3-4.98c0-1.93-1.55-3.5-3.48-3.52-1.93 0-3.5 1.55-3.52 3.48 0 1.93 1.55 3.5 3.48 3.52 1.93 0 3.5-1.55 3.52-3.48zM23 19c.83 0 1.5-.67 1.5-1.5V9c0-.83-.67-1.5-1.5-1.5H9c-.83 0-1.5.67-1.5 1.5v8.5c0 .83.67 1.5 1.5 1.5h7.5v2l2-2H23zm0 1.5h-4l-4 4v-4H9c-1.65 0-3-1.35-3-3V9c0-1.65 1.35-3 3-3h14c1.65 0 3 1.35 3 3v8.5c0 1.65-1.35 3-3 3zm8 8.98c0-1.93 1.6-3.5 3.52-3.48 1.93 0 3.5 1.6 3.48 3.52 0 1.93-1.6 3.5-3.52 3.48-1.93 0-3.5-1.6-3.48-3.52z"/></svg>