<svg width="48" height="48" viewBox="0 0 48 48" xmlns="http://www.w3.org/2000/svg" xmlns:xlink="http://www.w3.org/1999/xlink"><path d="M37 38.818l-.254-1.312s-.486.149-1.061.149c-1.017 0-1.868-.499-2.21-1.579h2.21l.166-.772H33.22s-.033-.198-.033-.319c0-.166.022-.298.022-.298h2.774l.177-.771h-2.752c.354-1.003 1.171-1.58 2.222-1.58.408 0 .784.044.784.044l.343-1.275S36.248 31 35.663 31c-1.824 0-3.305 1.142-3.78 2.916h-.822v.771h.678s-.022.198-.022.319c0 .144.022.298.022.298h-.678v.772h.822c.453 1.773 1.889 2.924 3.78 2.924.763 0 1.337-.182 1.337-.182zM42 35a7 7 0 1 1-14 0 7 7 0 0 1 14 0zm-31.5-3.5H16V30h-5.5v1.5zM9 39h8.5V24.5H9V39zm25.5-27.996v15.51s-1.5-.014-3 .748V9.001l-16.499.005c-.825 0-1.495.67-1.499 1.494H29.5v18.031c-1.403 1.195-2.604 3.101-3 4.969v-20l-12.999.012v3.493L23.499 17h.001a1.5 1.5 0 0 1 1.5 1.5V38a1.5 1.5 0 0 1-1.5 1.5H22V20.001l-11.5.005c-.825 0-1.496.67-1.5 1.494h11.5v19A1.5 1.5 0 0 1 19 42H7.5A1.5 1.5 0 0 1 6 40.5V21.506a4.506 4.506 0 0 1 4.498-4.5h.003v-6.5a4.506 4.506 0 0 1 4.498-4.5l18-.006H33a1.5 1.5 0 0 1 1.5 1.5V11.004zM10.5 28.5H16V27h-5.5v1.5z"/></svg>
