<svg width="48" height="48" viewBox="0 0 48 48" xmlns="http://www.w3.org/2000/svg"><path d="M28.5 39H28v3h.5c.83 0 1.5-.67 1.5-1.5s-.67-1.5-1.5-1.5zM6.24 40.93L9.5 42v-3l-3.26 1.07c-.32.2-.32.66 0 .86zM10.5 42H27v-3H10.5v3zM9 34.5h18V9H9v25.5zM30 9v25.5c0 1.65-1.35 3-3 3H6V6h21c1.65 0 3 1.35 3 3zM12.5 20h11v-6.5h-11V20zm0 1.5H11V12h14v9.5H12.5zM14 16h8v-1h-8v1zm1 2h6v-1h-6v1zm24-9h-4.5v30H39v-1.5h-1v-1h1V35h-1v-1h1v-1.5h-1.97v-1H39V30h-1v-1h1v-1.5h-1v-1h1V25h-2v-1h2v-1h-1v-1h1v-1.5h-1v-1h1V18h-2v-1h2v-1h-1v-1h1v-1.5h-1v-1h1V9zm3-3v36H31.5V6H42zm-6 4.75c0-.4.34-.75.75-.75.4 0 .75.34.75.75 0 .4-.34.75-.75.75-.4 0-.75-.34-.75-.75z"/></svg>