<svg width="48" height="48" viewBox="0 0 48 48" xmlns="http://www.w3.org/2000/svg"><path d="M29.28 18l-.13-.87-3.65.4v.87l3.78-.4zM24 22v-7.5h1.5v1.85l3.47-.38-.7-4.47c-.5-2.5-3.5-3.55-3.5-3.55-1-.45-1.27-.45-2.27-.45l-4 6-4-6c-1 0-1.28-.03-2.28.43 0 0-3 1.04-3.5 3.54l-.7 4.5 3.48.38V14.5H13v14h11V22zm-11 8.5h11v-1H13v1zm-1.5-12.1v-.86l-3.65-.4-.13.83 3.78.42zm4.8-10.9l2.2 3.4 2.2-3.4h-4.4zM31 19.32l-5.5.58V32h-14V19.9L6 19.3l1.25-8.12c.62-3.08 3.84-4.43 4.4-4.64C12.8 6.02 13.3 6 14.5 6h8c1.2 0 1.7.05 2.85.57.56.2 3.78 1.56 4.4 4.64L31 19.4zm9.5 16.1c0-1.4-.53-2.77-1.4-3.77-.86-.97-1.16-2.15-.76-3.36.17-.6.22-1.1.13-1.7-.23-1.5-1.7-2.5-3.47-2.6V13.5h-1v10.53c-1.8.16-3.54 1.13-3.54 3.25 0 .4.07.8.2 1.18.4 1.18.2 2.22-.64 3.15-1.1 1.3-1.76 3.3-1.44 5.1.4 2.3 2 3.8 5.96 3.8 3.98 0 5.96-1.5 5.96-5zM33.5 12h2V7.5h-2V12zM42 35.42c0 3-1.3 6.58-7.46 6.58-5.4 0-7.02-2.74-7.43-5.04-.3-2.17.4-4.72 1.8-6.35.5-.5.6-.9.4-1.6-.2-.5-.3-1.1-.3-1.63 0-2.2 1.4-3.84 3.58-4.5v-9.3L32 13h-.25c-.4 0-.75-.34-.75-.75 0-.4.34-.75.75-.75H32v-1h-.25c-.4 0-.75-.34-.75-.75 0-.4.34-.75.75-.75H32V8h-.25c-.4 0-.75-.34-.75-.75 0-.4.34-.75.75-.75H32V6h5v.5h.25c.42 0 .75.34.75.75 0 .4-.33.75-.75.75H37v1h.25c.4 0 .75.34.75.75 0 .4-.34.75-.75.75H37v1h.25c.42 0 .75.34.75.75 0 .4-.33.75-.75.75H37l-.5.5v9.28c1.85.54 3.2 1.87 3.45 3.58.13.82.07 1.62-.18 2.4-.23.68-.08 1.3.45 1.9 1.13 1.28 1.78 3.02 1.78 4.76zm-7.5-8.92c-1.1 0-2 .9-2 2s.9 2 2 2 2-.9 2-2-.9-2-2-2zm-1.5 12h3V37h-3v1.5zm-12-23h1.5V17s0 1.5-1.5 1.5-1.5-1.5-1.5-1.5v-1.5H21z"/></svg>