<svg width="48" height="48" viewBox="0 0 48 48" xmlns="http://www.w3.org/2000/svg" xmlns:xlink="http://www.w3.org/1999/xlink"><path d="M28.44 15h1.5v2.5s0 1.5-1.5 1.5-1.5-1.5-1.5-1.5V15h1.5zm5.519 6.435l-.213-1.385 4.794-1.37.46 1.314-5.041 1.441zM33.277 17H31.44v19h-14V17h-1.836l-.24 1.556-4.527-1.293 1.288-3.68a4.507 4.507 0 0 1 1.98-2.401l3.39-1.978c.229-.134.49-.204.756-.204h1.339l4.85 6.79L29.29 9h1.338c.267 0 .528.07.756.204l3.39 1.977a4.508 4.508 0 0 1 1.98 2.401l1.289 3.681-4.528 1.293-.24-1.556zM17.44 39h14v-1.5h-14V39zm-2.518-17.565l-5.041-1.441.46-1.314 4.794 1.37-.213 1.385zM28.519 7.5l-4.078 5.71-4.08-5.71h8.158zm11.068 5.091a7.508 7.508 0 0 0-3.3-4.001l-3.39-1.977A4.5 4.5 0 0 0 30.63 6H18.25c-.795 0-1.58.212-2.267.612l-3.39 1.979a7.508 7.508 0 0 0-3.3 4.001L6 22.006l8.44 2.411V42h20V24.417l8.442-2.411-3.295-9.415z"/></svg>
