<svg width="48" height="48" viewBox="0 0 48 48" xmlns="http://www.w3.org/2000/svg" xmlns:xlink="http://www.w3.org/1999/xlink"><path d="M21.504 37a2.5 2.5 0 1 0 0 5 2.5 2.5 0 0 0 0-5zM24 17.379l-4.457-3.962c-.597-.608-1.283-.917-2.04-.917l-4.348.002c-.372 0-.73-.137-1.005-.386l-4.143-3.73L6 10.614l4.143 3.731a4.482 4.482 0 0 0 1.877.993c-.003.055-.016.106-.016.162v6.668l-2.247 1.926-2.638 6.329 2.77 1.154 2.362-5.671 2.753-2.359V33h3V16.056l4.003 3.565L24 17.379zM15.004 11a2.5 2.5 0 1 0 0-5 2.5 2.5 0 0 0 0 5zm22.08 23.5l-1.08-3.243v-6.701l4.003 3.565L42 25.879l-4.457-3.962c-.597-.608-1.283-.917-2.04-.917l-11.5.004v3l6-.002v7.181l-3.417 9.824 2.834.986L33.07 31.5h.433v1.743l1.419 4.257h7.08v-3h-4.918zM29.005 17a2.5 2.5 0 1 1 5 0 2.5 2.5 0 0 1-5 0z"/></svg>
