<svg width="48" height="48" viewBox="0 0 48 48" xmlns="http://www.w3.org/2000/svg"><path d="M37.08 34.5L36 31.26v-6.7l4 3.56 2-2.24-4.46-3.96c-.6-.6-1.28-.92-2.04-.92H24v3h6v6.98l-3.9 9.92 2.78 1.1 4.14-10.5h.48v1.74l1.42 4.26H42v-3h-4.92zM21.5 37c-1.38 0-2.5 1.12-2.5 2.5s1.12 2.5 2.5 2.5 2.5-1.12 2.5-2.5-1.12-2.5-2.5-2.5zm10-17.5c1.38 0 2.5-1.12 2.5-2.5s-1.12-2.5-2.5-2.5S29 15.62 29 17s1.12 2.5 2.5 2.5zM9 24.8c-.43.43-.43 1.1 0 1.53.4.42 1.1.42 1.5 0 .43-.42.43-1.1 0-1.52-.4-.4-1.1-.4-1.5 0zm10.5 2.5L18 23.53V33h-3V16.45l-1.45 2.18-3.05 1.74v2.4c.9.2 1.6.75 1.73 1.54.06.4.03.77-.08 1.1-.25.76-.06 1.5.47 2.1.55.6.88 1.48.88 2.36 0 2.22-1.24 3.17-3.72 3.17-2.5 0-3.47-.97-3.73-2.37-.2-1.13.2-2.4.9-3.17.53-.6.66-1.25.4-1.98-.08-.23-.12-.5-.12-.74 0-1.15.82-1.76 1.77-1.96v-7.3h1.5v1.4l.95-.53 1.96-2.9c.65-.65 1.35-.98 2.1-.98h4.38c.37 0 .73-.13 1-.38L25.5 7.9l2 2.2-4.63 4.24c-.55.5-1.2.82-1.9 1 .02.05.03.1.03.16v7.46l1.5 3.75V33h-3v-5.7zM15.4 8.5c0-1.38 1.13-2.5 2.5-2.5 1.4 0 2.5 1.12 2.5 2.5S19.3 11 17.9 11c-1.37 0-2.5-1.12-2.5-2.5z"/></svg>