<svg width="48" height="48" viewBox="0 0 48 48" xmlns="http://www.w3.org/2000/svg"><path d="M17 15.5h5V14h-5v1.5zm-2.5-1h-2c-.83 0-1.5.67-1.5 1.5v.5h5V16c0-.83-.67-1.5-1.5-1.5zm-1-1c.82 0 1.5-.67 1.5-1.5s-.66-1.5-1.5-1.5c-.82 0-1.5.63-1.5 1.5 0 .83.66 1.5 1.5 1.5zm3.5-1h6V11h-6v1.5zM9 18h16V9H9v9zm-3 1.48V7.5C6 6.67 6.67 6 7.5 6h19c.82 0 1.5.67 1.5 1.5v12c0 .83-.67 1.5-1.5 1.5l-19-.02c-.83 0-1.5-.68-1.5-1.5zm34.8 18.75c-.2-.12-2-1.23-4.3-1.23s-4.1 1.1-4.3 1.23c0 0-1.25.77-2.7.77-1.45 0-2.7-.76-2.7-.77-.2-.12-2-1.23-4.3-1.23s-4.1 1.1-4.3 1.23c0 0-1.25.77-2.7.77-1.45 0-2.7-.76-2.7-.77-.2-.12-2-1.23-4.3-1.23-.95 0-1.8.2-2.5.42v3.24c.4-.2 1.4-.66 2.5-.66 1.45 0 2.7.76 2.7.77.2.12 2 1.23 4.3 1.23s4.1-1.1 4.3-1.23c0 0 1.25-.77 2.7-.77 1.45 0 2.7.76 2.7.77.2.12 2 1.23 4.3 1.23s4.1-1.1 4.3-1.23c0 0 1.25-.77 2.7-.77 1.45 0 2.7.76 2.7.77.15.1 1.25.76 2.8 1.07v-3.1c-.7-.2-1.2-.5-1.2-.5zm-13.83-9.25l-7.3-4.48-6.3 4.6 1.76 2.42 4.7-3.4 3.12 1.9-9.04 6.4c.26.12.44.23.53.3.12.05.65.28 1.08.28.44 0 .97-.23 1.17-.34.37-.24 2.75-1.66 5.84-1.66 3.1 0 5.48 1.42 5.93 1.7.12.07.65.3 1.08.3.44 0 .97-.23 1.17-.34.15-.1.7-.42 1.47-.74l-3.67-5.5c-.32-.5-.67-1.04-1.5-1.44zM31 30.5c0-1.93 1.57-3.5 3.5-3.5s3.5 1.57 3.5 3.5-1.57 3.5-3.5 3.5-3.5-1.57-3.5-3.5z"/></svg>