<svg width="48" height="48" viewBox="0 0 48 48" xmlns="http://www.w3.org/2000/svg" xmlns:xlink="http://www.w3.org/1999/xlink"><path d="M12 10.946a1.5 1.5 0 1 1 3 .018 1.5 1.5 0 0 1-3-.018zm4 4.009v.523h-5v-.523a1.5 1.5 0 0 1 1.5-1.5h2a1.5 1.5 0 0 1 1.5 1.5zm1-.477h5v-1.5h-5v1.5zm0-3h6v-1.5h-6v1.5zm-8 5.5V8h15.99l.01 9-16-.022zm18.99-8.981l.01 9.001c0 .803-.312 1.557-.88 2.124A2.978 2.978 0 0 1 25 20h-.004l-16-.022a3.003 3.003 0 0 1-2.996-3V8c0-1.655 1.346-3 3-3h15.99a3.004 3.004 0 0 1 3 2.997zm12.817 29.238c.004.002.484.296 1.193.52v3.088c-1.547-.308-2.654-.982-2.806-1.079-.006-.003-1.246-.764-2.694-.764-1.447 0-2.687.761-2.7.768-.191.122-1.996 1.232-4.3 1.232-2.303 0-4.108-1.11-4.306-1.236-.006-.003-1.246-.764-2.694-.764-1.447 0-2.687.761-2.7.768-.191.122-1.996 1.232-4.3 1.232-2.303 0-4.108-1.11-4.306-1.236C11.188 39.761 9.948 39 8.5 39c-1.111 0-2.094.446-2.5.658v-3.24A8.07 8.07 0 0 1 8.5 36c2.304 0 4.109 1.11 4.307 1.235.006.003 1.246.765 2.693.765 1.448 0 2.688-.762 2.701-.769.191-.122 1.996-1.23 4.299-1.23 2.304 0 4.109 1.108 4.307 1.234.006.003 1.246.765 2.693.765 1.448 0 2.688-.762 2.701-.769.191-.122 1.996-1.23 4.299-1.23 2.304 0 4.109 1.108 4.307 1.234zM34.5 32a3.5 3.5 0 1 1 .001-6.999 3.5 3.5 0 0 1-.001 7zm-19.366-2.484L13.37 27.09l6.313-4.59 7.284 4.482c.819.4 1.175.942 1.49 1.424l3.673 5.51c-.782.328-1.317.642-1.475.744-.193.111-.727.34-1.155.34-.427 0-.962-.229-1.08-.294C27.974 34.422 25.59 33 22.5 33c-3.089 0-5.473 1.422-5.845 1.66-.193.111-.727.34-1.155.34-.427 0-.962-.229-1.08-.294a9.048 9.048 0 0 0-.509-.293l9.042-6.378-3.131-1.928-4.688 3.41z"/></svg>
